<svg xmlns="http://www.w3.org/2000/svg" width="16.642" height="15.757" viewBox="0 0 16.642 15.757"><defs><style>.a{fill:#fff;}</style></defs><g transform="translate(0 0)"><path class="a" d="M27.482,14.979a.6.6,0,0,0-.717.464l-.439,2.049A7.853,7.853,0,0,0,11.7,21.464a.6.6,0,1,0,1.208,0A6.646,6.646,0,0,1,25.3,18.127L23.284,17.7a.6.6,0,0,0-.253,1.181l3.457.741a.6.6,0,0,0,.717-.464l.741-3.457A.6.6,0,0,0,27.482,14.979Z" transform="translate(-11.318 -13.611)"/><path class="a" d="M15.557,230.841a.6.6,0,0,0-.584.624,6.645,6.645,0,0,1-6.422,6.861c-.074,0-.148,0-.221,0a6.644,6.644,0,0,1-5.651-3.15l2.1.563a.6.6,0,0,0,.313-1.167l-3.415-.916a.6.6,0,0,0-.74.427L.021,237.5a.6.6,0,1,0,1.167.313L1.7,235.9a7.85,7.85,0,0,0,6.627,3.642c.087,0,.174,0,.261,0a7.853,7.853,0,0,0,7.589-8.108A.6.6,0,0,0,15.557,230.841Z" transform="translate(0 -223.78)"/></g></svg>