<?xml version="1.0" encoding="utf-8"?>
<!-- Generator: Adobe Illustrator 23.0.3, SVG Export Plug-In . SVG Version: 6.00 Build 0)  -->
<svg version="1.1" id="圖層_1" xmlns="http://www.w3.org/2000/svg" xmlns:xlink="http://www.w3.org/1999/xlink" x="0px" y="0px"
	 viewBox="0 0 81 81" style="enable-background:new 0 0 81 81;" xml:space="preserve">
<style type="text/css">
	.st0{fill:#F50A0A;}
</style>
<g>
	<path class="st0" d="M71.6,14.5L14.5,71.5c1.3,1.1,2.7,2.1,4.1,3l56-56C73.6,17.1,72.6,15.7,71.6,14.5z"/>
	<path class="st0" d="M63.3,7L7.1,63.3c1,1.4,2,2.8,3.1,4.1l57.2-57.2C66.1,9,64.7,7.9,63.3,7z"/>
	<path class="st0" d="M77.5,24L24.1,77.5c1.7,0.8,3.5,1.4,5.3,1.9l50.1-50.1C79,27.5,78.3,25.8,77.5,24z"/>
	<path class="st0" d="M80.8,36.4L36.5,80.8c2.4,0.2,4.7,0.3,7.1,0.1l37.3-37.3C81.1,41.2,81.1,38.8,80.8,36.4z"/>
	<path class="st0" d="M39,0l-39,39c-0.1,2.2,0,4.5,0.3,6.8L45.8,0.3C43.6,0,41.3-0.1,39,0z"/>
	<path class="st0" d="M52.7,1.9L1.9,52.7c0.6,1.7,1.2,3.5,2,5.2l53.9-54C56.2,3.1,54.5,2.4,52.7,1.9z"/>
	<path class="st0" d="M54.5,78.5c2.2-0.8,4.3-1.8,6.3-3c8.6-4.9,14.6-12.5,17.8-21.2L54.5,78.5z"/>
	<path class="st0" d="M28.9,1.7c-2.9,0.9-5.8,2.1-8.6,3.7C11,10.8,4.6,19.3,1.8,28.8L28.9,1.7z"/>
</g>
</svg>
