<svg xmlns="http://www.w3.org/2000/svg" width="27.727" height="59.943" viewBox="0 0 27.727 59.943"><defs><style>.a,.c{fill:none;stroke:#aaa;stroke-width:3px;}.a{stroke-linecap:round;stroke-linejoin:round;}.b{fill:#aaa;}.c{stroke-miterlimit:10;}</style></defs><g transform="translate(-51.27 -493.447)"><path class="a" d="M59.4,519.621l14.909,15.324L52.77,555.406l6.453-37.678.759-4.434H70.94L77.5,555.406,56.293,534.838,71.95,519.78" transform="translate(0 -3.516)"/><path class="b" d="M66.8,502.683a4.618,4.618,0,1,1,4.618-4.618,4.6,4.6,0,0,1-4.618,4.618Zm0-7.439a2.822,2.822,0,1,0,2.822,2.822h0A2.846,2.846,0,0,0,66.8,495.243Z" transform="translate(-1.668)"/><line class="c" y2="8.492" transform="translate(65.134 501.682)"/></g></svg>
