<svg xmlns="http://www.w3.org/2000/svg" width="280" height="280" viewBox="0 0 280 280"><defs><style>.a,.b,.f{fill:none;}.a,.b,.c,.d{stroke:#333;}.a,.b,.c{stroke-miterlimit:10;}.a{stroke-width:15px;}.b{stroke-width:20px;}.c,.d{fill:#333;}.c{stroke-width:8px;}.e{stroke:none;}</style></defs><g transform="translate(-2827.086 -1210.816)"><path class="a" d="M3024.61,1338.671l-39.522-69.2a15.653,15.653,0,0,0-26.85.7l-68.6,121.615a15.653,15.653,0,0,0,13.634,23.344h138.066a15.653,15.653,0,0,0,13.217-24.04l-13.665-23.924"/><line class="b" x1="225.529" y2="124.123" transform="translate(2854.322 1303.823)"/><g class="b" transform="translate(2827.086 1210.816)"><circle class="e" cx="140" cy="140" r="140"/><circle class="f" cx="140" cy="140" r="130"/></g><path class="c" d="M2966.255,1307.163c0-2.358,2.6-3.34,5.6-3.34,3.517,0,5.335,1.7,5.335,3.34l-1.039,4.193a106.709,106.709,0,0,0-2.862,25.877c0,.982-.13,1.049-1.824,1.438-1.953-.327-1.953-.456-1.953-1.438,0-10.021-.519-17.227-1.693-21.617Z"/><path class="d" d="M2979.126,1392.348a6.535,6.535,0,0,1-6.747,6.84,6.813,6.813,0,0,1-6.9-6.84,6.523,6.523,0,0,1,6.9-6.682A6.673,6.673,0,0,1,2979.126,1392.348Z"/></g></svg>