<svg xmlns="http://www.w3.org/2000/svg" width="53.792" height="45.691" viewBox="0 0 53.792 45.691"><defs><style>.a{fill:none;stroke:#aaa;stroke-linecap:round;stroke-miterlimit:10;stroke-width:3px;}</style></defs><g transform="translate(46.112 -504.623)"><circle class="a" cx="4.891" cy="4.891" r="4.891" transform="translate(-24.622 539.032)"/><path class="a" d="M-28.158,540.431a14.7,14.7,0,0,1,12.424-6.444,14.823,14.823,0,0,1,11.894,5.684" transform="translate(-4.253 -7.202)"/><path class="a" d="M-37.227,530.793a22.445,22.445,0,0,1,19.149-10.081c8.614,0,16.068,4.46,19.661,10.95" transform="translate(-1.909 -3.771)"/><path class="a" d="M-44.612,518.215c5.2-7.274,14.289-12.092,24.626-12.092,11.449,0,21.363,5.911,26.167,14.523" transform="translate(0 0)"/></g></svg>