<svg xmlns="http://www.w3.org/2000/svg" width="40.081" height="51.896" viewBox="0 0 40.081 51.896"><defs><style>.a{fill:#aaa;}.b{fill:none;stroke:#aaa;stroke-linecap:round;stroke-miterlimit:10;stroke-width:2px;}</style></defs><path class="a" d="M-92.232,535.694h-26.721a4.552,4.552,0,0,1-4.525-4.526V500.783a4.4,4.4,0,0,1,3.232-4.309c.647-.216,14.654-4.526,29.092,0h0a4.8,4.8,0,0,1,3.448,4.309v30.385A4.419,4.419,0,0,1-92.232,535.694Zm-12.93-39.651a55.825,55.825,0,0,0-14.653,1.94,2.976,2.976,0,0,0-2.155,2.8v30.385a2.946,2.946,0,0,0,3.017,3.017h26.721a2.946,2.946,0,0,0,3.017-3.017V500.783a2.983,2.983,0,0,0-2.371-2.8h0A46.981,46.981,0,0,0-105.163,496.042Z" transform="translate(125.634 -494.413)"/><rect class="a" width="34.264" height="1.508" transform="translate(2.586 8.094)"/><path class="a" d="M-103.269,532.858a80.015,80.015,0,0,1-18.963-2.155l.431-1.508a76.475,76.475,0,0,0,18.533,2.154c10.344,0,15.084-2.154,15.084-2.154l.646,1.508C-87.753,530.7-92.709,532.858-103.269,532.858Z" transform="translate(125.249 -505.154)"/><path class="a" d="M-114.924,544.123a3.863,3.863,0,0,1-3.879-3.879,3.863,3.863,0,0,1,3.879-3.879,3.863,3.863,0,0,1,3.879,3.879,3.863,3.863,0,0,1-3.879,3.879Zm0-6.249a2.391,2.391,0,0,0-2.37,2.37,2.392,2.392,0,0,0,2.37,2.371,2.392,2.392,0,0,0,2.371-2.371h0A2.547,2.547,0,0,0-114.924,537.874Z" transform="translate(124.19 -507.368)"/><path class="a" d="M-83.435,544.123a3.863,3.863,0,0,1-3.879-3.879,3.863,3.863,0,0,1,3.879-3.879,3.863,3.863,0,0,1,3.879,3.879,3.863,3.863,0,0,1-3.879,3.879Zm0-6.249a2.391,2.391,0,0,0-2.37,2.37,2.392,2.392,0,0,0,2.37,2.371,2.392,2.392,0,0,0,2.371-2.371h0A2.392,2.392,0,0,0-83.435,537.874Z" transform="translate(114.466 -507.368)"/><path class="a" d="M-113.626,559.066h-.431A1.931,1.931,0,0,1-116,557.126v-5.172h4.31v5.172A2.274,2.274,0,0,1-113.626,559.066Zm-.862-5.388v3.448a.211.211,0,0,0,.215.215h.431a.211.211,0,0,0,.216-.215v-3.448Z" transform="translate(123.324 -512.182)"/><path class="a" d="M-81.2,559.066h-.431a1.931,1.931,0,0,1-1.939-1.939v-5.172h4.31v5.172C-79.478,558.2-80.124,559.066-81.2,559.066Zm-.862-5.388v3.448a.211.211,0,0,0,.216.215h.431a.211.211,0,0,0,.215-.215v-3.448Z" transform="translate(113.31 -512.182)"/><path class="a" d="M-71.968,518.966h-.216a1.854,1.854,0,0,1-1.724-1.725h0v-4.094a1.854,1.854,0,0,1,1.724-1.724h.216a1.854,1.854,0,0,1,1.724,1.724h0v4.094a1.7,1.7,0,0,1-1.724,1.725Zm-.216-6.034h0l-.216,4.095a.211.211,0,0,0,.216.215h.216a.211.211,0,0,0,.215-.215v-4.31h0Z" transform="translate(110.326 -499.666)"/><path class="a" d="M-124.658,518.966h-.216a1.854,1.854,0,0,1-1.724-1.725v-4.094a1.854,1.854,0,0,1,1.724-1.724h.216a1.854,1.854,0,0,1,1.724,1.724v4.094a1.7,1.7,0,0,1-1.724,1.725Zm-.216-6.034c-.216,0-.216.216,0,0h0l-.216,4.095a.211.211,0,0,0,.216.215h.216a.211.211,0,0,0,.216-.215h0v-4.31h0Z" transform="translate(126.597 -499.666)"/><path class="b" d="M-125.054,566.255h13.509l5.083-4.013,4.742,3.652h13.85" transform="translate(126.12 -515.36)"/></svg>