<svg xmlns="http://www.w3.org/2000/svg" width="84" height="84" viewBox="0 0 84 84"><defs><style>.a{fill:#ffce00;}.b{fill:none;}.b,.c{stroke:#222;stroke-miterlimit:10;stroke-width:4px;}.c{fill:#fff;}.d{fill:#222;}</style></defs><g transform="translate(2 2.044)"><path class="a" d="M42,0A42,42,0,1,1,0,42,42,42,0,0,1,42,0Z" transform="translate(-2 -2.044)"/><g transform="translate(14.96 14.217)"><path class="b" d="M24.754,199.1,4.51,234.988a4.619,4.619,0,0,0,4.022,6.89H49.278a4.62,4.62,0,0,0,3.9-7.1l-20.5-35.893A4.624,4.624,0,0,0,24.754,199.1Z" transform="translate(-3.906 -196.748)"/><path class="c" d="M9.633,201.291c0-.954.738-1.351,1.586-1.351a1.391,1.391,0,0,1,1.514,1.351l-.294,1.7a60.687,60.687,0,0,0-.813,10.473c0,.4-.034.426-.516.582-.554-.131-.554-.185-.554-.582a53.659,53.659,0,0,0-.482-8.746Z" transform="translate(14.123 -185.664)"/><path class="d" d="M15.461,208.458a2.809,2.809,0,0,1-2.885,2.952,2.924,2.924,0,0,1-2.949-2.952,2.8,2.8,0,0,1,2.949-2.882A2.868,2.868,0,0,1,15.461,208.458Z" transform="translate(12.566 -171.823)"/></g></g></svg>