<svg xmlns="http://www.w3.org/2000/svg" width="84" height="84" viewBox="0 0 84 84"><defs><style>.a{fill:#ff8900;}.b,.c,.d{fill:none;stroke:#222;stroke-miterlimit:10;}.b{stroke-width:4px;}.c,.d{stroke-linecap:round;}.c{stroke-width:2px;}.d{stroke-width:3px;}</style></defs><g transform="translate(2 1.759)"><path class="a" d="M42,0A42,42,0,1,1,0,42,42,42,0,0,1,42,0Z" transform="translate(-2 -1.759)"/><g transform="translate(12.704 13.23)"><g transform="translate(0 0)"><ellipse class="b" cx="27" cy="27" rx="27" ry="27"/></g><g transform="translate(7.141 8.825)"><path class="b" d="M-20.566,263.129a9.636,9.636,0,0,1,9.634-9.638h0a9.64,9.64,0,0,1,9.638,9.638v15.342H-20.566Z" transform="translate(30.955 -242.586)"/><path class="c" d="M-19.236,265.867v-6.032a4.816,4.816,0,0,1,4.815-4.819h0" transform="translate(35.223 -237.775)"/><path class="c" d="M-21.974,264.251c.258-6.61,4.5-11.238,9.21-12.127" transform="translate(27.255 -246.898)"/><path class="c" d="M-23.245,268.3c-.05-7.989,5.151-15.674,12.363-17.436" transform="translate(23.245 -250.866)"/><g transform="translate(25.273)"><path class="c" d="M-7.6,264.251c-.258-6.61-4.5-11.238-9.21-12.127" transform="translate(16.81 -246.898)"/><path class="c" d="M-3.934,268.3c.05-7.989-5.151-15.674-12.363-17.436" transform="translate(18.428 -250.866)"/></g><line class="d" x1="22.764" transform="translate(8.652 35.887)"/></g></g></g></svg>