<svg xmlns="http://www.w3.org/2000/svg" width="13.679" height="12.434" viewBox="0 0 13.679 12.434"><defs><style>.a{fill:none;stroke-width:1.2px;}.a,.b{stroke:#000;stroke-miterlimit:10;}</style></defs><g transform="translate(0.616 0.6)"><path class="a" d="M9.1,197.332l-5.039,8.934a1.15,1.15,0,0,0,1,1.715H15.2a1.15,1.15,0,0,0,.971-1.766l-5.1-8.934A1.151,1.151,0,0,0,9.1,197.332Z" transform="translate(-3.906 -196.748)"/><path class="b" d="M9.633,200.287c0-.245.19-.347.408-.347a.358.358,0,0,1,.389.347l-.076.436a15.6,15.6,0,0,0-.209,2.693c0,.1-.009.109-.133.15-.142-.034-.142-.047-.142-.15a13.8,13.8,0,0,0-.124-2.249Z" transform="translate(-3.733 -196.44)"/><path d="M11.127,206.317a.722.722,0,0,1-.742.759.752.752,0,0,1-.758-.759.72.72,0,0,1,.758-.741A.737.737,0,0,1,11.127,206.317Z" transform="translate(-4.127 -197.268)"/></g></svg>