<svg xmlns="http://www.w3.org/2000/svg" width="14.35" height="14.35" viewBox="0 0 14.35 14.35"><defs><style>.a,.b,.c{fill:none;stroke:#000;stroke-miterlimit:10;}.b,.c{stroke-linecap:round;}.b{stroke-width:0.6px;}</style></defs><g transform="translate(0.5 0.5)"><circle class="a" cx="6.675" cy="6.675" r="6.675"/><g transform="translate(1.719 2.296)"><path class="a" d="M-20.566,255.811a2.32,2.32,0,0,1,2.319-2.32h0a2.32,2.32,0,0,1,2.32,2.32V259.5h-4.639Z" transform="translate(23.245 -250.866)"/><path class="b" d="M-19.236,257.628v-1.452a1.159,1.159,0,0,1,1.159-1.16h0" transform="translate(23.245 -250.866)"/><path class="b" d="M-21.974,255.043a2.955,2.955,0,0,1,2.217-2.919" transform="translate(23.245 -250.866)"/><path class="b" d="M-23.245,255.063a4.275,4.275,0,0,1,2.976-4.2" transform="translate(23.245 -250.866)"/><g transform="translate(6.435)"><path class="b" d="M-14.593,255.043a2.955,2.955,0,0,0-2.217-2.919" transform="translate(16.81 -250.866)"/><path class="b" d="M-13.321,255.063a4.275,4.275,0,0,0-2.976-4.2" transform="translate(16.81 -250.866)"/></g><line class="c" x1="5.831" transform="translate(2.083 8.638)"/></g></g></svg>